<?xml version='1.0' encoding='UTF-8'?>
<svg style="background:#fff" width="47mm" height="47mm" version="1.1" viewBox="0 0 47 47" xmlns="http://www.w3.org/2000/svg"><path d="M3,3H4V4H3zM4,3H5V4H4zM5,3H6V4H5zM6,3H7V4H6zM7,3H8V4H7zM8,3H9V4H8zM9,3H10V4H9zM11,3H12V4H11zM13,3H14V4H13zM17,3H18V4H17zM18,3H19V4H18zM20,3H21V4H20zM21,3H22V4H21zM24,3H25V4H24zM25,3H26V4H25zM26,3H27V4H26zM27,3H28V4H27zM29,3H30V4H29zM31,3H32V4H31zM32,3H33V4H32zM33,3H34V4H33zM34,3H35V4H34zM35,3H36V4H35zM37,3H38V4H37zM38,3H39V4H38zM39,3H40V4H39zM40,3H41V4H40zM41,3H42V4H41zM42,3H43V4H42zM43,3H44V4H43zM3,4H4V5H3zM9,4H10V5H9zM11,4H12V5H11zM12,4H13V5H12zM14,4H15V5H14zM19,4H20V5H19zM21,4H22V5H21zM23,4H24V5H23zM24,4H25V5H24zM27,4H28V5H27zM30,4H31V5H30zM31,4H32V5H31zM32,4H33V5H32zM35,4H36V5H35zM37,4H38V5H37zM43,4H44V5H43zM3,5H4V6H3zM5,5H6V6H5zM6,5H7V6H6zM7,5H8V6H7zM9,5H10V6H9zM11,5H12V6H11zM12,5H13V6H12zM15,5H16V6H15zM16,5H17V6H16zM18,5H19V6H18zM23,5H24V6H23zM24,5H25V6H24zM25,5H26V6H25zM26,5H27V6H26zM27,5H28V6H27zM29,5H30V6H29zM30,5H31V6H30zM32,5H33V6H32zM33,5H34V6H33zM34,5H35V6H34zM37,5H38V6H37zM39,5H40V6H39zM40,5H41V6H40zM41,5H42V6H41zM43,5H44V6H43zM3,6H4V7H3zM5,6H6V7H5zM6,6H7V7H6zM7,6H8V7H7zM9,6H10V7H9zM12,6H13V7H12zM14,6H15V7H14zM16,6H17V7H16zM19,6H20V7H19zM20,6H21V7H20zM21,6H22V7H21zM22,6H23V7H22zM23,6H24V7H23zM26,6H27V7H26zM30,6H31V7H30zM35,6H36V7H35zM37,6H38V7H37zM39,6H40V7H39zM40,6H41V7H40zM41,6H42V7H41zM43,6H44V7H43zM3,7H4V8H3zM5,7H6V8H5zM6,7H7V8H6zM7,7H8V8H7zM9,7H10V8H9zM12,7H13V8H12zM14,7H15V8H14zM15,7H16V8H15zM16,7H17V8H16zM17,7H18V8H17zM18,7H19V8H18zM19,7H20V8H19zM21,7H22V8H21zM22,7H23V8H22zM24,7H25V8H24zM25,7H26V8H25zM26,7H27V8H26zM27,7H28V8H27zM28,7H29V8H28zM29,7H30V8H29zM31,7H32V8H31zM33,7H34V8H33zM34,7H35V8H34zM35,7H36V8H35zM37,7H38V8H37zM39,7H40V8H39zM40,7H41V8H40zM41,7H42V8H41zM43,7H44V8H43zM3,8H4V9H3zM9,8H10V9H9zM11,8H12V9H11zM13,8H14V9H13zM14,8H15V9H14zM16,8H17V9H16zM18,8H19V9H18zM19,8H20V9H19zM20,8H21V9H20zM21,8H22V9H21zM23,8H24V9H23zM24,8H25V9H24zM28,8H29V9H28zM30,8H31V9H30zM32,8H33V9H32zM33,8H34V9H33zM35,8H36V9H35zM37,8H38V9H37zM43,8H44V9H43zM3,9H4V10H3zM4,9H5V10H4zM5,9H6V10H5zM6,9H7V10H6zM7,9H8V10H7zM8,9H9V10H8zM9,9H10V10H9zM11,9H12V10H11zM13,9H14V10H13zM15,9H16V10H15zM17,9H18V10H17zM19,9H20V10H19zM21,9H22V10H21zM23,9H24V10H23zM25,9H26V10H25zM27,9H28V10H27zM29,9H30V10H29zM31,9H32V10H31zM33,9H34V10H33zM35,9H36V10H35zM37,9H38V10H37zM38,9H39V10H38zM39,9H40V10H39zM40,9H41V10H40zM41,9H42V10H41zM42,9H43V10H42zM43,9H44V10H43zM11,10H12V11H11zM12,10H13V11H12zM14,10H15V11H14zM15,10H16V11H15zM18,10H19V11H18zM19,10H20V11H19zM20,10H21V11H20zM21,10H22V11H21zM24,10H25V11H24zM27,10H28V11H27zM31,10H32V11H31zM5,11H6V12H5zM6,11H7V12H6zM7,11H8V12H7zM9,11H10V12H9zM11,11H12V12H11zM15,11H16V12H15zM17,11H18V12H17zM20,11H21V12H20zM21,11H22V12H21zM22,11H23V12H22zM23,11H24V12H23zM26,11H27V12H26zM28,11H29V12H28zM32,11H33V12H32zM34,11H35V12H34zM36,11H37V12H36zM37,11H38V12H37zM38,11H39V12H38zM41,11H42V12H41zM42,11H43V12H42zM43,11H44V12H43zM4,12H5V13H4zM6,12H7V13H6zM10,12H11V13H10zM11,12H12V13H11zM18,12H19V13H18zM19,12H20V13H19zM20,12H21V13H20zM22,12H23V13H22zM23,12H24V13H23zM24,12H25V13H24zM29,12H30V13H29zM31,12H32V13H31zM33,12H34V13H33zM34,12H35V13H34zM35,12H36V13H35zM36,12H37V13H36zM37,12H38V13H37zM38,12H39V13H38zM39,12H40V13H39zM41,12H42V13H41zM42,12H43V13H42zM43,12H44V13H43zM3,13H4V14H3zM5,13H6V14H5zM6,13H7V14H6zM8,13H9V14H8zM9,13H10V14H9zM12,13H13V14H12zM16,13H17V14H16zM17,13H18V14H17zM19,13H20V14H19zM22,13H23V14H22zM26,13H27V14H26zM28,13H29V14H28zM30,13H31V14H30zM31,13H32V14H31zM35,13H36V14H35zM37,13H38V14H37zM38,13H39V14H38zM39,13H40V14H39zM42,13H43V14H42zM3,14H4V15H3zM5,14H6V15H5zM6,14H7V15H6zM7,14H8V15H7zM10,14H11V15H10zM11,14H12V15H11zM12,14H13V15H12zM14,14H15V15H14zM18,14H19V15H18zM21,14H22V15H21zM24,14H25V15H24zM25,14H26V15H25zM29,14H30V15H29zM31,14H32V15H31zM33,14H34V15H33zM34,14H35V15H34zM35,14H36V15H35zM36,14H37V15H36zM37,14H38V15H37zM39,14H40V15H39zM40,14H41V15H40zM3,15H4V16H3zM4,15H5V16H4zM5,15H6V16H5zM6,15H7V16H6zM8,15H9V16H8zM9,15H10V16H9zM26,15H27V16H26zM27,15H28V16H27zM32,15H33V16H32zM34,15H35V16H34zM35,15H36V16H35zM37,15H38V16H37zM38,15H39V16H38zM40,15H41V16H40zM41,15H42V16H41zM42,15H43V16H42zM4,16H5V17H4zM5,16H6V17H5zM8,16H9V17H8zM10,16H11V17H10zM11,16H12V17H11zM12,16H13V17H12zM13,16H14V17H13zM14,16H15V17H14zM15,16H16V17H15zM16,16H17V17H16zM17,16H18V17H17zM19,16H20V17H19zM20,16H21V17H20zM21,16H22V17H21zM25,16H26V17H25zM29,16H30V17H29zM30,16H31V17H30zM31,16H32V17H31zM33,16H34V17H33zM36,16H37V17H36zM38,16H39V17H38zM39,16H40V17H39zM40,16H41V17H40zM42,16H43V17H42zM43,16H44V17H43zM3,17H4V18H3zM5,17H6V18H5zM7,17H8V18H7zM8,17H9V18H8zM9,17H10V18H9zM10,17H11V18H10zM11,17H12V18H11zM14,17H15V18H14zM15,17H16V18H15zM16,17H17V18H16zM17,17H18V18H17zM20,17H21V18H20zM21,17H22V18H21zM25,17H26V18H25zM28,17H29V18H28zM32,17H33V18H32zM33,17H34V18H33zM35,17H36V18H35zM36,17H37V18H36zM38,17H39V18H38zM41,17H42V18H41zM42,17H43V18H42zM10,18H11V19H10zM13,18H14V19H13zM15,18H16V19H15zM16,18H17V19H16zM17,18H18V19H17zM18,18H19V19H18zM20,18H21V19H20zM21,18H22V19H21zM24,18H25V19H24zM26,18H27V19H26zM31,18H32V19H31zM37,18H38V19H37zM38,18H39V19H38zM40,18H41V19H40zM43,18H44V19H43zM4,19H5V20H4zM5,19H6V20H5zM6,19H7V20H6zM7,19H8V20H7zM8,19H9V20H8zM9,19H10V20H9zM14,19H15V20H14zM18,19H19V20H18zM20,19H21V20H20zM22,19H23V20H22zM23,19H24V20H23zM25,19H26V20H25zM26,19H27V20H26zM28,19H29V20H28zM29,19H30V20H29zM32,19H33V20H32zM35,19H36V20H35zM36,19H37V20H36zM38,19H39V20H38zM41,19H42V20H41zM43,19H44V20H43zM4,20H5V21H4zM5,20H6V21H5zM7,20H8V21H7zM10,20H11V21H10zM11,20H12V21H11zM13,20H14V21H13zM14,20H15V21H14zM16,20H17V21H16zM17,20H18V21H17zM19,20H20V21H19zM20,20H21V21H20zM21,20H22V21H21zM22,20H23V21H22zM23,20H24V21H23zM24,20H25V21H24zM27,20H28V21H27zM28,20H29V21H28zM31,20H32V21H31zM33,20H34V21H33zM34,20H35V21H34zM35,20H36V21H35zM37,20H38V21H37zM38,20H39V21H38zM39,20H40V21H39zM40,20H41V21H40zM41,20H42V21H41zM43,20H44V21H43zM3,21H4V22H3zM4,21H5V22H4zM7,21H8V22H7zM8,21H9V22H8zM9,21H10V22H9zM10,21H11V22H10zM11,21H12V22H11zM16,21H17V22H16zM21,21H22V22H21zM24,21H25V22H24zM25,21H26V22H25zM26,21H27V22H26zM27,21H28V22H27zM30,21H31V22H30zM33,21H34V22H33zM35,21H36V22H35zM36,21H37V22H36zM39,21H40V22H39zM40,21H41V22H40zM41,21H42V22H41zM3,22H4V23H3zM6,22H7V23H6zM7,22H8V23H7zM10,22H11V23H10zM13,22H14V23H13zM15,22H16V23H15zM17,22H18V23H17zM19,22H20V23H19zM20,22H21V23H20zM21,22H22V23H21zM22,22H23V23H22zM23,22H24V23H23zM24,22H25V23H24zM26,22H27V23H26zM28,22H29V23H28zM29,22H30V23H29zM30,22H31V23H30zM35,22H36V23H35zM36,22H37V23H36zM39,22H40V23H39zM40,22H41V23H40zM5,23H6V24H5zM9,23H10V24H9zM12,23H13V24H12zM13,23H14V24H13zM15,23H16V24H15zM17,23H18V24H17zM19,23H20V24H19zM23,23H24V24H23zM26,23H27V24H26zM29,23H30V24H29zM30,23H31V24H30zM33,23H34V24H33zM36,23H37V24H36zM38,23H39V24H38zM39,23H40V24H39zM41,23H42V24H41zM5,24H6V25H5zM6,24H7V25H6zM7,24H8V25H7zM8,24H9V25H8zM16,24H17V25H16zM17,24H18V25H17zM18,24H19V25H18zM19,24H20V25H19zM20,24H21V25H20zM25,24H26V25H25zM27,24H28V25H27zM28,24H29V25H28zM32,24H33V25H32zM34,24H35V25H34zM35,24H36V25H35zM36,24H37V25H36zM37,24H38V25H37zM39,24H40V25H39zM40,24H41V25H40zM41,24H42V25H41zM42,24H43V25H42zM43,24H44V25H43zM4,25H5V26H4zM7,25H8V26H7zM8,25H9V26H8zM9,25H10V26H9zM14,25H15V26H14zM16,25H17V26H16zM17,25H18V26H17zM20,25H21V26H20zM21,25H22V26H21zM25,25H26V26H25zM26,25H27V26H26zM28,25H29V26H28zM29,25H30V26H29zM30,25H31V26H30zM33,25H34V26H33zM35,25H36V26H35zM37,25H38V26H37zM38,25H39V26H38zM39,25H40V26H39zM40,25H41V26H40zM41,25H42V26H41zM6,26H7V27H6zM10,26H11V27H10zM13,26H14V27H13zM14,26H15V27H14zM18,26H19V27H18zM20,26H21V27H20zM23,26H24V27H23zM25,26H26V27H25zM27,26H28V27H27zM28,26H29V27H28zM29,26H30V27H29zM34,26H35V27H34zM35,26H36V27H35zM36,26H37V27H36zM37,26H38V27H37zM39,26H40V27H39zM42,26H43V27H42zM43,26H44V27H43zM4,27H5V28H4zM5,27H6V28H5zM7,27H8V28H7zM8,27H9V28H8zM9,27H10V28H9zM10,27H11V28H10zM11,27H12V28H11zM12,27H13V28H12zM14,27H15V28H14zM15,27H16V28H15zM19,27H20V28H19zM20,27H21V28H20zM22,27H23V28H22zM23,27H24V28H23zM24,27H25V28H24zM26,27H27V28H26zM28,27H29V28H28zM30,27H31V28H30zM32,27H33V28H32zM43,27H44V28H43zM4,28H5V29H4zM5,28H6V29H5zM7,28H8V29H7zM11,28H12V29H11zM13,28H14V29H13zM15,28H16V29H15zM16,28H17V29H16zM18,28H19V29H18zM24,28H25V29H24zM25,28H26V29H25zM26,28H27V29H26zM29,28H30V29H29zM31,28H32V29H31zM32,28H33V29H32zM34,28H35V29H34zM36,28H37V29H36zM37,28H38V29H37zM38,28H39V29H38zM39,28H40V29H39zM40,28H41V29H40zM42,28H43V29H42zM43,28H44V29H43zM3,29H4V30H3zM4,29H5V30H4zM5,29H6V30H5zM7,29H8V30H7zM8,29H9V30H8zM9,29H10V30H9zM10,29H11V30H10zM12,29H13V30H12zM13,29H14V30H13zM16,29H17V30H16zM20,29H21V30H20zM21,29H22V30H21zM22,29H23V30H22zM25,29H26V30H25zM26,29H27V30H26zM27,29H28V30H27zM28,29H29V30H28zM29,29H30V30H29zM30,29H31V30H30zM31,29H32V30H31zM33,29H34V30H33zM35,29H36V30H35zM36,29H37V30H36zM5,30H6V31H5zM6,30H7V31H6zM11,30H12V31H11zM14,30H15V31H14zM19,30H20V31H19zM20,30H21V31H20zM22,30H23V31H22zM23,30H24V31H23zM24,30H25V31H24zM25,30H26V31H25zM27,30H28V31H27zM28,30H29V31H28zM33,30H34V31H33zM34,30H35V31H34zM35,30H36V31H35zM39,30H40V31H39zM40,30H41V31H40zM42,30H43V31H42zM3,31H4V32H3zM6,31H7V32H6zM7,31H8V32H7zM9,31H10V32H9zM11,31H12V32H11zM13,31H14V32H13zM16,31H17V32H16zM17,31H18V32H17zM18,31H19V32H18zM22,31H23V32H22zM23,31H24V32H23zM25,31H26V32H25zM26,31H27V32H26zM28,31H29V32H28zM29,31H30V32H29zM30,31H31V32H30zM31,31H32V32H31zM32,31H33V32H32zM34,31H35V32H34zM36,31H37V32H36zM40,31H41V32H40zM41,31H42V32H41zM42,31H43V32H42zM3,32H4V33H3zM4,32H5V33H4zM5,32H6V33H5zM8,32H9V33H8zM10,32H11V33H10zM11,32H12V33H11zM13,32H14V33H13zM17,32H18V33H17zM19,32H20V33H19zM20,32H21V33H20zM21,32H22V33H21zM22,32H23V33H22zM24,32H25V33H24zM26,32H27V33H26zM30,32H31V33H30zM32,32H33V33H32zM35,32H36V33H35zM38,32H39V33H38zM39,32H40V33H39zM40,32H41V33H40zM42,32H43V33H42zM43,32H44V33H43zM3,33H4V34H3zM7,33H8V34H7zM8,33H9V34H8zM9,33H10V34H9zM10,33H11V34H10zM11,33H12V34H11zM12,33H13V34H12zM15,33H16V34H15zM18,33H19V34H18zM19,33H20V34H19zM21,33H22V34H21zM22,33H23V34H22zM23,33H24V34H23zM24,33H25V34H24zM26,33H27V34H26zM27,33H28V34H27zM28,33H29V34H28zM30,33H31V34H30zM31,33H32V34H31zM32,33H33V34H32zM34,33H35V34H34zM36,33H37V34H36zM37,33H38V34H37zM39,33H40V34H39zM40,33H41V34H40zM3,34H4V35H3zM7,34H8V35H7zM8,34H9V35H8zM10,34H11V35H10zM11,34H12V35H11zM12,34H13V35H12zM13,34H14V35H13zM15,34H16V35H15zM18,34H19V35H18zM19,34H20V35H19zM21,34H22V35H21zM23,34H24V35H23zM25,34H26V35H25zM27,34H28V35H27zM30,34H31V35H30zM34,34H35V35H34zM35,34H36V35H35zM36,34H37V35H36zM37,34H38V35H37zM38,34H39V35H38zM40,34H41V35H40zM3,35H4V36H3zM5,35H6V36H5zM6,35H7V36H6zM7,35H8V36H7zM9,35H10V36H9zM15,35H16V36H15zM17,35H18V36H17zM19,35H20V36H19zM22,35H23V36H22zM25,35H26V36H25zM30,35H31V36H30zM31,35H32V36H31zM32,35H33V36H32zM33,35H34V36H33zM34,35H35V36H34zM35,35H36V36H35zM36,35H37V36H36zM37,35H38V36H37zM38,35H39V36H38zM39,35H40V36H39zM41,35H42V36H41zM42,35H43V36H42zM43,35H44V36H43zM11,36H12V37H11zM13,36H14V37H13zM15,36H16V37H15zM16,36H17V37H16zM18,36H19V37H18zM19,36H20V37H19zM20,36H21V37H20zM21,36H22V37H21zM22,36H23V37H22zM24,36H25V37H24zM29,36H30V37H29zM31,36H32V37H31zM32,36H33V37H32zM33,36H34V37H33zM35,36H36V37H35zM39,36H40V37H39zM40,36H41V37H40zM42,36H43V37H42zM43,36H44V37H43zM3,37H4V38H3zM4,37H5V38H4zM5,37H6V38H5zM6,37H7V38H6zM7,37H8V38H7zM8,37H9V38H8zM9,37H10V38H9zM14,37H15V38H14zM15,37H16V38H15zM25,37H26V38H25zM27,37H28V38H27zM30,37H31V38H30zM31,37H32V38H31zM32,37H33V38H32zM34,37H35V38H34zM35,37H36V38H35zM37,37H38V38H37zM39,37H40V38H39zM41,37H42V38H41zM3,38H4V39H3zM9,38H10V39H9zM12,38H13V39H12zM16,38H17V39H16zM17,38H18V39H17zM20,38H21V39H20zM22,38H23V39H22zM24,38H25V39H24zM25,38H26V39H25zM27,38H28V39H27zM30,38H31V39H30zM31,38H32V39H31zM32,38H33V39H32zM33,38H34V39H33zM34,38H35V39H34zM35,38H36V39H35zM39,38H40V39H39zM40,38H41V39H40zM42,38H43V39H42zM3,39H4V40H3zM5,39H6V40H5zM6,39H7V40H6zM7,39H8V40H7zM9,39H10V40H9zM11,39H12V40H11zM14,39H15V40H14zM19,39H20V40H19zM21,39H22V40H21zM22,39H23V40H22zM24,39H25V40H24zM25,39H26V40H25zM26,39H27V40H26zM29,39H30V40H29zM35,39H36V40H35zM36,39H37V40H36zM37,39H38V40H37zM38,39H39V40H38zM39,39H40V40H39zM40,39H41V40H40zM41,39H42V40H41zM3,40H4V41H3zM5,40H6V41H5zM6,40H7V41H6zM7,40H8V41H7zM9,40H10V41H9zM11,40H12V41H11zM12,40H13V41H12zM15,40H16V41H15zM19,40H20V41H19zM20,40H21V41H20zM22,40H23V41H22zM23,40H24V41H23zM26,40H27V41H26zM27,40H28V41H27zM29,40H30V41H29zM31,40H32V41H31zM33,40H34V41H33zM34,40H35V41H34zM35,40H36V41H35zM36,40H37V41H36zM38,40H39V41H38zM40,40H41V41H40zM41,40H42V41H41zM42,40H43V41H42zM43,40H44V41H43zM3,41H4V42H3zM5,41H6V42H5zM6,41H7V42H6zM7,41H8V42H7zM9,41H10V42H9zM11,41H12V42H11zM12,41H13V42H12zM14,41H15V42H14zM15,41H16V42H15zM16,41H17V42H16zM18,41H19V42H18zM21,41H22V42H21zM23,41H24V42H23zM28,41H29V42H28zM30,41H31V42H30zM31,41H32V42H31zM32,41H33V42H32zM33,41H34V42H33zM36,41H37V42H36zM37,41H38V42H37zM38,41H39V42H38zM39,41H40V42H39zM41,41H42V42H41zM42,41H43V42H42zM3,42H4V43H3zM9,42H10V43H9zM16,42H17V43H16zM17,42H18V43H17zM19,42H20V43H19zM21,42H22V43H21zM24,42H25V43H24zM25,42H26V43H25zM26,42H27V43H26zM27,42H28V43H27zM29,42H30V43H29zM30,42H31V43H30zM31,42H32V43H31zM35,42H36V43H35zM37,42H38V43H37zM39,42H40V43H39zM40,42H41V43H40zM41,42H42V43H41zM42,42H43V43H42zM3,43H4V44H3zM4,43H5V44H4zM5,43H6V44H5zM6,43H7V44H6zM7,43H8V44H7zM8,43H9V44H8zM9,43H10V44H9zM14,43H15V44H14zM15,43H16V44H15zM16,43H17V44H16zM18,43H19V44H18zM20,43H21V44H20zM23,43H24V44H23zM24,43H25V44H24zM25,43H26V44H25zM28,43H29V44H28zM30,43H31V44H30zM32,43H33V44H32zM34,43H35V44H34zM36,43H37V44H36zM37,43H38V44H37zM38,43H39V44H38zM39,43H40V44H39z" id="qr-path" fill="#000000" fill-opacity="1" fill-rule="nonzero" stroke="none"/></svg>